# xmcd
#
# Track frame offsets:
#	183
#	14948
#	35525
#	55523
#	82018
#	100820
#	111963
#	127950
#	146010
#	161393
#	182895
#
# Disc length: 2674 seconds
#
# Revision: 5
# Processed by: cddbd v1.5.2PL0 Copyright (c) Steve Scherf et al.
# Submitted via: audiograbber 1.83.01
#
DISCID=930a700b
DTITLE=James Last - Tanz mit mir
DYEAR=1987
DGENRE=Easy Listening
TTITLE0=Medley- (a) Rock Around The Clock (b) See You Later Alligator (c) Hound
TTITLE0=Dog
TTITLE1=Medley- (a) Soley Soley (b) Amarillo (c) Save Your Kisses For Me
TTITLE2=Medley- (a) Hands Up (b) Japanese Boy (c) Agadou
TTITLE3=Medley- (a) Fanfare For The Common Man (b) Can't Stop The Music (c) Eld
TTITLE3=orado (d) Xanadu
TTITLE4=Medley- (a) Can You Feel It (b) Ai No Corrida
TTITLE5=La Bostella
TTITLE6=One For You, One For Me
TTITLE7=Little Brown Jug
TTITLE8=My Sharona
TTITLE9=Knock On Wood
TTITLE10=Rise
EXTD=
EXTT0=
EXTT1=
EXTT2=
EXTT3=
EXTT4=
EXTT5=
EXTT6=
EXTT7=
EXTT8=
EXTT9=
EXTT10=
PLAYORDER=
